%TF.GenerationSoftware,KiCad,Pcbnew,(6.0.4)*%
%TF.CreationDate,2022-05-01T14:15:37+08:00*%
%TF.ProjectId,S3_module,53335f6d-6f64-4756-9c65-2e6b69636164,rev?*%
%TF.SameCoordinates,Original*%
%TF.FileFunction,Copper,L1,Top*%
%TF.FilePolarity,Positive*%
%FSLAX46Y46*%
G04 Gerber Fmt 4.6, Leading zero omitted, Abs format (unit mm)*
G04 Created by KiCad (PCBNEW (6.0.4)) date 2022-05-01 14:15:37*
%MOMM*%
%LPD*%
G01*
G04 APERTURE LIST*
G04 Aperture macros list*
%AMRoundRect*
0 Rectangle with rounded corners*
0 $1 Rounding radius*
0 $2 $3 $4 $5 $6 $7 $8 $9 X,Y pos of 4 corners*
0 Add a 4 corners polygon primitive as box body*
4,1,4,$2,$3,$4,$5,$6,$7,$8,$9,$2,$3,0*
0 Add four circle primitives for the rounded corners*
1,1,$1+$1,$2,$3*
1,1,$1+$1,$4,$5*
1,1,$1+$1,$6,$7*
1,1,$1+$1,$8,$9*
0 Add four rect primitives between the rounded corners*
20,1,$1+$1,$2,$3,$4,$5,0*
20,1,$1+$1,$4,$5,$6,$7,0*
20,1,$1+$1,$6,$7,$8,$9,0*
20,1,$1+$1,$8,$9,$2,$3,0*%
G04 Aperture macros list end*
%TA.AperFunction,SMDPad,CuDef*%
%ADD10RoundRect,0.250000X-0.475000X0.337500X-0.475000X-0.337500X0.475000X-0.337500X0.475000X0.337500X0*%
%TD*%
%TA.AperFunction,SMDPad,CuDef*%
%ADD11RoundRect,0.250000X0.450000X-0.350000X0.450000X0.350000X-0.450000X0.350000X-0.450000X-0.350000X0*%
%TD*%
%TA.AperFunction,SMDPad,CuDef*%
%ADD12RoundRect,0.250000X-0.337500X-0.475000X0.337500X-0.475000X0.337500X0.475000X-0.337500X0.475000X0*%
%TD*%
%TA.AperFunction,ComponentPad*%
%ADD13R,1.700000X1.700000*%
%TD*%
%TA.AperFunction,ComponentPad*%
%ADD14O,1.700000X1.700000*%
%TD*%
%TA.AperFunction,SMDPad,CuDef*%
%ADD15R,0.450000X0.600000*%
%TD*%
%TA.AperFunction,ComponentPad*%
%ADD16C,2.500000*%
%TD*%
%TA.AperFunction,SMDPad,CuDef*%
%ADD17RoundRect,0.200000X0.200000X-0.700000X0.200000X0.700000X-0.200000X0.700000X-0.200000X-0.700000X0*%
%TD*%
%TA.AperFunction,SMDPad,CuDef*%
%ADD18RoundRect,0.250000X-0.350000X-0.450000X0.350000X-0.450000X0.350000X0.450000X-0.350000X0.450000X0*%
%TD*%
%TA.AperFunction,ComponentPad*%
%ADD19C,2.000000*%
%TD*%
%TA.AperFunction,SMDPad,CuDef*%
%ADD20R,0.400000X1.500000*%
%TD*%
%TA.AperFunction,SMDPad,CuDef*%
%ADD21RoundRect,0.250000X0.475000X-0.337500X0.475000X0.337500X-0.475000X0.337500X-0.475000X-0.337500X0*%
%TD*%
%TA.AperFunction,SMDPad,CuDef*%
%ADD22RoundRect,0.250000X0.337500X0.475000X-0.337500X0.475000X-0.337500X-0.475000X0.337500X-0.475000X0*%
%TD*%
%TA.AperFunction,SMDPad,CuDef*%
%ADD23R,1.500000X1.000000*%
%TD*%
%TA.AperFunction,SMDPad,CuDef*%
%ADD24RoundRect,0.250000X0.350000X0.450000X-0.350000X0.450000X-0.350000X-0.450000X0.350000X-0.450000X0*%
%TD*%
%TA.AperFunction,ComponentPad*%
%ADD25R,2.000000X2.000000*%
%TD*%
%TA.AperFunction,ComponentPad*%
%ADD26R,3.200000X2.000000*%
%TD*%
%TA.AperFunction,SMDPad,CuDef*%
%ADD27R,0.900000X0.900000*%
%TD*%
%TA.AperFunction,SMDPad,CuDef*%
%ADD28R,1.500000X0.900000*%
%TD*%
%TA.AperFunction,SMDPad,CuDef*%
%ADD29R,0.900000X1.500000*%
%TD*%
%TA.AperFunction,SMDPad,CuDef*%
%ADD30RoundRect,0.250000X0.450000X-0.325000X0.450000X0.325000X-0.450000X0.325000X-0.450000X-0.325000X0*%
%TD*%
%TA.AperFunction,SMDPad,CuDef*%
%ADD31R,1.500000X2.000000*%
%TD*%
%TA.AperFunction,SMDPad,CuDef*%
%ADD32R,3.800000X2.000000*%
%TD*%
%TA.AperFunction,SMDPad,CuDef*%
%ADD33R,1.450000X0.600000*%
%TD*%
%TA.AperFunction,SMDPad,CuDef*%
%ADD34R,1.450000X0.300000*%
%TD*%
%TA.AperFunction,ComponentPad*%
%ADD35O,2.100000X1.000000*%
%TD*%
%TA.AperFunction,ComponentPad*%
%ADD36O,1.600000X1.000000*%
%TD*%
%TA.AperFunction,ViaPad*%
%ADD37C,0.800000*%
%TD*%
%TA.AperFunction,Conductor*%
%ADD38C,0.300000*%
%TD*%
%TA.AperFunction,Conductor*%
%ADD39C,0.500000*%
%TD*%
%TA.AperFunction,Conductor*%
%ADD40C,1.000000*%
%TD*%
%TA.AperFunction,Conductor*%
%ADD41C,0.200000*%
%TD*%
G04 APERTURE END LIST*
D10*
%TO.P,C5,1*%
%TO.N,GND*%
X94742000Y-132799000D03*
%TO.P,C5,2*%
%TO.N,/+5V*%
X94742000Y-134874000D03*
%TD*%
D11*
%TO.P,R5,1*%
%TO.N,VCC*%
X169672000Y-116570000D03*
%TO.P,R5,2*%
%TO.N,Net-(D3-Pad2)*%
X169672000Y-114570000D03*
%TD*%
D12*
%TO.P,C3,1*%
%TO.N,GND*%
X155659000Y-90678000D03*
%TO.P,C3,2*%
%TO.N,Net-(C3-Pad2)*%
X157734000Y-90678000D03*
%TD*%
D13*
%TO.P,J2,1,Pin_1*%
%TO.N,/IO5*%
X166375000Y-145415000D03*
D14*
%TO.P,J2,2,Pin_2*%
%TO.N,/IO4*%
X168915000Y-145415000D03*
%TO.P,J2,3,Pin_3*%
%TO.N,/IO3*%
X171455000Y-145415000D03*
%TO.P,J2,4,Pin_4*%
%TO.N,/IO2*%
X173995000Y-145415000D03*
%TO.P,J2,5,Pin_5*%
%TO.N,/IO1*%
X176535000Y-145415000D03*
%TD*%
D15*
%TO.P,D7,1,K*%
%TO.N,SW_B*%
X123444000Y-142528000D03*
%TO.P,D7,2,A*%
%TO.N,Net-(D7-Pad2)*%
X123444000Y-140428000D03*
%TD*%
%TO.P,D6,1,K*%
%TO.N,SW_A*%
X123698000Y-122970000D03*
%TO.P,D6,2,A*%
%TO.N,Net-(D6-Pad2)*%
X123698000Y-120870000D03*
%TD*%
D16*
%TO.P,SW4,1,1*%
%TO.N,SW_1*%
X110490000Y-116840000D03*
%TO.P,SW4,2,2*%
%TO.N,Net-(D6-Pad2)*%
X116840000Y-114300000D03*
%TD*%
D17*
%TO.P,SW2,1,1*%
%TO.N,GND*%
X163288000Y-110696000D03*
X163288000Y-106696000D03*
%TO.P,SW2,2,2*%
%TO.N,Net-(C3-Pad2)*%
X165438000Y-110696000D03*
X165438000Y-106696000D03*
%TD*%
D12*
%TO.P,C18,2*%
%TO.N,GND*%
X104902000Y-85852000D03*
%TO.P,C18,1*%
%TO.N,VCC*%
X102827000Y-85852000D03*
%TD*%
%TO.P,C14,2*%
%TO.N,GND*%
X122174000Y-88138000D03*
%TO.P,C14,1*%
%TO.N,Net-(C14-Pad1)*%
X120099000Y-88138000D03*
%TD*%
D17*
%TO.P,SW1,1,1*%
%TO.N,GND*%
X168180000Y-106696000D03*
X168180000Y-110696000D03*
%TO.P,SW1,2,2*%
%TO.N,/BOOT*%
X170330000Y-110696000D03*
X170330000Y-106696000D03*
%TD*%
D18*
%TO.P,R10,2*%
%TO.N,/Rotary_Z*%
X104902000Y-90424000D03*
%TO.P,R10,1*%
%TO.N,VCC*%
X102902000Y-90424000D03*
%TD*%
D19*
%TO.P,U6,1,GND*%
%TO.N,GND*%
X130429000Y-86020000D03*
%TO.P,U6,2,VCC*%
%TO.N,VCC*%
X132969000Y-86020000D03*
%TO.P,U6,3,SCL*%
%TO.N,/DIS_CLK*%
X135509000Y-86020000D03*
%TO.P,U6,4,SDA*%
%TO.N,/DIS_SDA*%
X138049000Y-86020000D03*
%TO.P,U6,5,RES*%
%TO.N,/BOOT*%
X140589000Y-86020000D03*
%TO.P,U6,6,DC*%
%TO.N,/IO6*%
X143129000Y-86020000D03*
%TO.P,U6,7,CS*%
%TO.N,/IO7*%
X145669000Y-86020000D03*
%TO.P,U6,8,BLK*%
%TO.N,unconnected-(U6-Pad8)*%
X148209000Y-86020000D03*
%TD*%
D20*
%TO.P,U5,1*%
%TO.N,N/C*%
X103012000Y-95698000D03*
%TO.P,U5,2*%
%TO.N,Net-(C15-Pad1)*%
X102362000Y-95698000D03*
%TO.P,U5,3,GND*%
%TO.N,GND*%
X101712000Y-95698000D03*
%TO.P,U5,4*%
%TO.N,R_Z*%
X101712000Y-98358000D03*
%TO.P,U5,5,VCC*%
%TO.N,VCC*%
X103012000Y-98358000D03*
%TD*%
D18*
%TO.P,R2,1*%
%TO.N,Net-(C3-Pad2)*%
X155734000Y-92964000D03*
%TO.P,R2,2*%
%TO.N,/EN*%
X157734000Y-92964000D03*
%TD*%
D15*
%TO.P,D8,1,K*%
%TO.N,SW_A*%
X143002000Y-122970000D03*
%TO.P,D8,2,A*%
%TO.N,Net-(D8-Pad2)*%
X143002000Y-120870000D03*
%TD*%
D11*
%TO.P,R6,1*%
%TO.N,/D+*%
X157480000Y-106410000D03*
%TO.P,R6,2*%
%TO.N,/USB_D+*%
X157480000Y-104410000D03*
%TD*%
D12*
%TO.P,C12,1*%
%TO.N,/D+*%
X158242000Y-108458000D03*
%TO.P,C12,2*%
%TO.N,GND*%
X160317000Y-108458000D03*
%TD*%
D10*
%TO.P,C9,1*%
%TO.N,GND*%
X94742000Y-120120500D03*
%TO.P,C9,2*%
%TO.N,/+5V*%
X94742000Y-122195500D03*
%TD*%
D21*
%TO.P,C11,1*%
%TO.N,/D-*%
X155448000Y-102383500D03*
%TO.P,C11,2*%
%TO.N,GND*%
X155448000Y-100308500D03*
%TD*%
D12*
%TO.P,C16,2*%
%TO.N,GND*%
X114062000Y-85852000D03*
%TO.P,C16,1*%
%TO.N,VCC*%
X111987000Y-85852000D03*
%TD*%
D22*
%TO.P,C2,1*%
%TO.N,VCC*%
X157734000Y-88392000D03*
%TO.P,C2,2*%
%TO.N,GND*%
X155659000Y-88392000D03*
%TD*%
D23*
%TO.P,D2,1,VDD*%
%TO.N,/+5V*%
X97880000Y-122225000D03*
%TO.P,D2,2,DOUT*%
%TO.N,Net-(D2-Pad2)*%
X97880000Y-125425000D03*
%TO.P,D2,3,VSS*%
%TO.N,GND*%
X102780000Y-125425000D03*
%TO.P,D2,4,DIN*%
%TO.N,Net-(D1-Pad2)*%
X102780000Y-122225000D03*
%TD*%
D22*
%TO.P,C1,1*%
%TO.N,/EN*%
X157755500Y-95250000D03*
%TO.P,C1,2*%
%TO.N,GND*%
X155680500Y-95250000D03*
%TD*%
D18*
%TO.P,R8,2*%
%TO.N,/Rotary_A*%
X114046000Y-90424000D03*
%TO.P,R8,1*%
%TO.N,VCC*%
X112046000Y-90424000D03*
%TD*%
D10*
%TO.P,C7,1*%
%TO.N,GND*%
X94742000Y-113770500D03*
%TO.P,C7,2*%
%TO.N,/+5V*%
X94742000Y-115845500D03*
%TD*%
D22*
%TO.P,C4,1*%
%TO.N,VCC*%
X157734000Y-86106000D03*
%TO.P,C4,2*%
%TO.N,GND*%
X155659000Y-86106000D03*
%TD*%
D11*
%TO.P,R7,1*%
%TO.N,/D-*%
X155448000Y-106410000D03*
%TO.P,R7,2*%
%TO.N,/USB_D-*%
X155448000Y-104410000D03*
%TD*%
D20*
%TO.P,U3,1*%
%TO.N,N/C*%
X107554000Y-90738000D03*
%TO.P,U3,2*%
%TO.N,Net-(C13-Pad1)*%
X108204000Y-90738000D03*
%TO.P,U3,3,GND*%
%TO.N,GND*%
X108854000Y-90738000D03*
%TO.P,U3,4*%
%TO.N,R_A*%
X108854000Y-88078000D03*
%TO.P,U3,5,VCC*%
%TO.N,VCC*%
X107554000Y-88078000D03*
%TD*%
D24*
%TO.P,R4,1*%
%TO.N,/CC2*%
X170688000Y-123190000D03*
%TO.P,R4,2*%
%TO.N,GND*%
X168688000Y-123190000D03*
%TD*%
D12*
%TO.P,C15,2*%
%TO.N,GND*%
X104902000Y-88138000D03*
%TO.P,C15,1*%
%TO.N,Net-(C15-Pad1)*%
X102827000Y-88138000D03*
%TD*%
D18*
%TO.P,R9,2*%
%TO.N,/Rotary_B*%
X122136500Y-90424000D03*
%TO.P,R9,1*%
%TO.N,VCC*%
X120136500Y-90424000D03*
%TD*%
D23*
%TO.P,D1,1,VDD*%
%TO.N,/+5V*%
X97880000Y-115875000D03*
%TO.P,D1,2,DOUT*%
%TO.N,Net-(D1-Pad2)*%
X97880000Y-119075000D03*
%TO.P,D1,3,VSS*%
%TO.N,GND*%
X102780000Y-119075000D03*
%TO.P,D1,4,DIN*%
%TO.N,/DIN*%
X102780000Y-115875000D03*
%TD*%
%TO.P,D4,1,VDD*%
%TO.N,/+5V*%
X97880000Y-128575000D03*
%TO.P,D4,2,DOUT*%
%TO.N,Net-(D4-Pad2)*%
X97880000Y-131775000D03*
%TO.P,D4,3,VSS*%
%TO.N,GND*%
X102780000Y-131775000D03*
%TO.P,D4,4,DIN*%
%TO.N,Net-(D2-Pad2)*%
X102780000Y-128575000D03*
%TD*%
D16*
%TO.P,SW9,1,1*%
%TO.N,SW_3*%
X148590000Y-135890000D03*
%TO.P,SW9,2,2*%
%TO.N,Net-(D11-Pad2)*%
X154940000Y-133350000D03*
%TD*%
D25*
%TO.P,SW3,A,A*%
%TO.N,/Rotary_A*%
X121550000Y-103465000D03*
D19*
%TO.P,SW3,B,B*%
%TO.N,/Rotary_B*%
X121550000Y-98465000D03*
%TO.P,SW3,C,C*%
%TO.N,GND*%
X121550000Y-100965000D03*
D26*
%TO.P,SW3,MP*%
%TO.N,N/C*%
X114050000Y-106565000D03*
X114050000Y-95365000D03*
D19*
%TO.P,SW3,S1,S1*%
%TO.N,/Rotary_Z*%
X107050000Y-98465000D03*
%TO.P,SW3,S2,S2*%
%TO.N,GND*%
X107050000Y-103465000D03*
%TD*%
D15*
%TO.P,D9,1,K*%
%TO.N,SW_B*%
X143002000Y-142528000D03*
%TO.P,D9,2,A*%
%TO.N,Net-(D9-Pad2)*%
X143002000Y-140428000D03*
%TD*%
D16*
%TO.P,SW6,1,1*%
%TO.N,SW_2*%
X129540000Y-116840000D03*
%TO.P,SW6,2,2*%
%TO.N,Net-(D8-Pad2)*%
X135890000Y-114300000D03*
%TD*%
D27*
%TO.P,U2,41,GND*%
%TO.N,GND*%
X168810000Y-93440000D03*
X166010000Y-93440000D03*
X167410000Y-92040000D03*
X167410000Y-94840000D03*
X166010000Y-94840000D03*
X168810000Y-92040000D03*
X166010000Y-92040000D03*
X167410000Y-93440000D03*
X168810000Y-94840000D03*
D28*
%TO.P,U2,40,GND*%
X177660000Y-85720000D03*
%TO.P,U2,39,GPIO1/TOUCH1/ADC1_CH0*%
%TO.N,/IO1*%
X177660000Y-86990000D03*
%TO.P,U2,38,GPIO2/TOUCH2/ADC1_CH1*%
%TO.N,/IO2*%
X177660000Y-88260000D03*
%TO.P,U2,37,U0TXD/GPIO43/CLK_OUT1*%
%TO.N,unconnected-(U2-Pad37)*%
X177660000Y-89530000D03*
%TO.P,U2,36,U0RXD/GPIO44/CLK_OUT2*%
%TO.N,unconnected-(U2-Pad36)*%
X177660000Y-90800000D03*
%TO.P,U2,35,MTMS/GPIO42*%
%TO.N,unconnected-(U2-Pad35)*%
X177660000Y-92070000D03*
%TO.P,U2,34,MTDI/GPIO41/CLK_OUT1*%
%TO.N,unconnected-(U2-Pad34)*%
X177660000Y-93340000D03*
%TO.P,U2,33,MTDO/GPIO40/CLK_OUT2*%
%TO.N,unconnected-(U2-Pad33)*%
X177660000Y-94610000D03*
%TO.P,U2,32,MTCK/GPIO39/CLK_OUT3/SUBSPICS1*%
%TO.N,unconnected-(U2-Pad32)*%
X177660000Y-95880000D03*
%TO.P,U2,31,GPIO38/FSPIWP/SUBSPIWP*%
%TO.N,unconnected-(U2-Pad31)*%
X177660000Y-97150000D03*
%TO.P,U2,30,SPIDQS/GPIO37/FSPIQ/SUBSPIQ*%
%TO.N,unconnected-(U2-Pad30)*%
X177660000Y-98420000D03*
%TO.P,U2,29,SPIIO7/GPIO36/FSPICLK/SUBSPICLK*%
%TO.N,unconnected-(U2-Pad29)*%
X177660000Y-99690000D03*
%TO.P,U2,28,SPIIO6/GPIO35/FSPID/SUBSPID*%
%TO.N,unconnected-(U2-Pad28)*%
X177660000Y-100960000D03*
%TO.P,U2,27,GPIO0/BOOT*%
%TO.N,/BOOT*%
X177660000Y-102230000D03*
D29*
%TO.P,U2,26,GPIO45*%
%TO.N,SW_B*%
X175895000Y-103480000D03*
%TO.P,U2,25,GPIO48/SPICLK_N/SUBSPICLK_N_DIFF*%
%TO.N,SW_2*%
X174625000Y-103480000D03*
%TO.P,U2,24,GPIO47/SPICLK_P/SUBSPICLK_P_DIFF*%
%TO.N,SW_3*%
X173355000Y-103480000D03*
%TO.P,U2,23,GPIO21*%
%TO.N,SW_A*%
X172085000Y-103480000D03*
%TO.P,U2,22,GPIO14/TOUCH14/ADC2_CH3/FSPIWP/FSPIDQS/SUBSPIWP*%
%TO.N,R_B*%
X170815000Y-103480000D03*
%TO.P,U2,21,GPIO13/TOUCH13/ADC2_CH2/FSPIQ/FSPIIO7/SUBSPIQ*%
%TO.N,R_A*%
X169545000Y-103480000D03*
%TO.P,U2,20,GPIO12/TOUCH11/ADC2_CH0/FSPICS0/FSPIIO4/SUBSPICS0*%
%TO.N,/DIS_CLK*%
X168275000Y-103480000D03*
%TO.P,U2,19,GPIO11/TOUCH11/ADC2_CH0/FSPICS0/FSPIIO4/SUBSPICS0*%
%TO.N,/DIS_SDA*%
X167005000Y-103480000D03*
%TO.P,U2,18,GPIO10/TOUCH10/ADC1_CH9/FSPICS0/FSPIIO4/SUBSPICS0*%
%TO.N,/IO10*%
X165735000Y-103480000D03*
%TO.P,U2,17,GPIO9/TOUCH9/ADC1_CH8/FSPIHD/SUBSPIHD*%
%TO.N,/IO9*%
X164465000Y-103480000D03*
%TO.P,U2,16,GPIO46*%
%TO.N,SW_1*%
X163195000Y-103480000D03*
%TO.P,U2,15,GPIO3/TOUCH3/ADC1_CH2*%
%TO.N,/IO3*%
X161925000Y-103480000D03*
D28*
%TO.P,U2,14,GPIO20/U1CTS/ADC2_CH9/CLK_OUT1/USB_D+*%
%TO.N,/USB_D+*%
X160160000Y-102230000D03*
%TO.P,U2,13,GPIO19/U1RTS/ADC2_CH8/CLK_OUT2/USB_D-*%
%TO.N,/USB_D-*%
X160160000Y-100960000D03*
%TO.P,U2,12,GPIO8/TOUCH8/ADC1_CH7/SUBSPICS1*%
%TO.N,/IO8*%
X160160000Y-99690000D03*
%TO.P,U2,11,GPIO18/U1RXD/ADC2_CH7/CLK_OUT3*%
%TO.N,unconnected-(U2-Pad11)*%
X160160000Y-98420000D03*
%TO.P,U2,10,GPIO17/U1TXD/ADC2_CH6*%
%TO.N,unconnected-(U2-Pad10)*%
X160160000Y-97150000D03*
%TO.P,U2,9,GPIO16/U0CTS/ADC2_CH5/XTAL_32K_NH5*%
%TO.N,unconnected-(U2-Pad9)*%
X160160000Y-95880000D03*
%TO.P,U2,8,GPIO15/U0RTS/ADC2_CH4/XTAL_32K_P*%
%TO.N,R_Z*%
X160160000Y-94610000D03*
%TO.P,U2,7,GPIO7/TOUCH7/ADC1_CH6*%
%TO.N,/IO7*%
X160160000Y-93340000D03*
%TO.P,U2,6,GPIO6/TOUCH6/ADC1_CH5*%
%TO.N,/IO6*%
X160160000Y-92070000D03*
%TO.P,U2,5,GPIO5/TOUCH5/ADC1_CH4*%
%TO.N,/IO5*%
X160160000Y-90800000D03*
%TO.P,U2,4,GPIO4/TOUCH4/ADC1_CH3*%
%TO.N,/IO4*%
X160160000Y-89530000D03*
%TO.P,U2,3,EN*%
%TO.N,/EN*%
X160160000Y-88260000D03*
%TO.P,U2,2,3V3*%
%TO.N,VCC*%
X160160000Y-86990000D03*
%TO.P,U2,1,GND*%
%TO.N,GND*%
X160160000Y-85720000D03*
%TD*%
D24*
%TO.P,R13,2*%
%TO.N,Net-(C15-Pad1)*%
X102902000Y-92710000D03*
%TO.P,R13,1*%
%TO.N,/Rotary_Z*%
X104902000Y-92710000D03*
%TD*%
D12*
%TO.P,C17,2*%
%TO.N,GND*%
X122174000Y-85852000D03*
%TO.P,C17,1*%
%TO.N,VCC*%
X120099000Y-85852000D03*
%TD*%
D24*
%TO.P,R12,2*%
%TO.N,Net-(C14-Pad1)*%
X120136500Y-92583000D03*
%TO.P,R12,1*%
%TO.N,/Rotary_B*%
X122136500Y-92583000D03*
%TD*%
D18*
%TO.P,R1,1*%
%TO.N,VCC*%
X155718000Y-97536000D03*
%TO.P,R1,2*%
%TO.N,/EN*%
X157718000Y-97536000D03*
%TD*%
D24*
%TO.P,R3,1*%
%TO.N,/CC1*%
X170688000Y-127254000D03*
%TO.P,R3,2*%
%TO.N,GND*%
X168688000Y-127254000D03*
%TD*%
D15*
%TO.P,D10,1,K*%
%TO.N,SW_A*%
X162052000Y-127796000D03*
%TO.P,D10,2,A*%
%TO.N,Net-(D10-Pad2)*%
X162052000Y-125696000D03*
%TD*%
D24*
%TO.P,R11,2*%
%TO.N,Net-(C13-Pad1)*%
X112046000Y-92710000D03*
%TO.P,R11,1*%
%TO.N,/Rotary_A*%
X114046000Y-92710000D03*
%TD*%
D10*
%TO.P,C10,1*%
%TO.N,GND*%
X94742000Y-126470500D03*
%TO.P,C10,2*%
%TO.N,/+5V*%
X94742000Y-128545500D03*
%TD*%
D16*
%TO.P,SW7,1,1*%
%TO.N,SW_2*%
X129540000Y-135890000D03*
%TO.P,SW7,2,2*%
%TO.N,Net-(D9-Pad2)*%
X135890000Y-133350000D03*
%TD*%
D12*
%TO.P,C13,2*%
%TO.N,GND*%
X114046000Y-88138000D03*
%TO.P,C13,1*%
%TO.N,Net-(C13-Pad1)*%
X111971000Y-88138000D03*
%TD*%
D30*
%TO.P,D3,1,K*%
%TO.N,GND*%
X167386000Y-116595000D03*
%TO.P,D3,2,A*%
%TO.N,Net-(D3-Pad2)*%
X167386000Y-114545000D03*
%TD*%
D22*
%TO.P,C6,1*%
%TO.N,/+5V*%
X171217500Y-120142000D03*
%TO.P,C6,2*%
%TO.N,GND*%
X169142500Y-120142000D03*
%TD*%
D23*
%TO.P,D5,1,VDD*%
%TO.N,/+5V*%
X97880000Y-134925000D03*
%TO.P,D5,2,DOUT*%
%TO.N,unconnected-(D5-Pad2)*%
X97880000Y-138125000D03*
%TO.P,D5,3,VSS*%
%TO.N,GND*%
X102780000Y-138125000D03*
%TO.P,D5,4,DIN*%
%TO.N,Net-(D4-Pad2)*%
X102780000Y-134925000D03*
%TD*%
D20*
%TO.P,U4,1*%
%TO.N,N/C*%
X116190000Y-90678000D03*
%TO.P,U4,2*%
%TO.N,Net-(C14-Pad1)*%
X116840000Y-90678000D03*
%TO.P,U4,3,GND*%
%TO.N,GND*%
X117490000Y-90678000D03*
%TO.P,U4,4*%
%TO.N,R_B*%
X117490000Y-88018000D03*
%TO.P,U4,5,VCC*%
%TO.N,VCC*%
X116190000Y-88018000D03*
%TD*%
D31*
%TO.P,U1,1,GND*%
%TO.N,GND*%
X172960000Y-116815000D03*
D32*
%TO.P,U1,2,VO*%
%TO.N,VCC*%
X175260000Y-110515000D03*
D31*
X175260000Y-116815000D03*
%TO.P,U1,3,VI*%
%TO.N,/+5V*%
X177560000Y-116815000D03*
%TD*%
D33*
%TO.P,J1,A1,GND*%
%TO.N,GND*%
X173755000Y-128345000D03*
%TO.P,J1,A4,VBUS*%
%TO.N,/+5V*%
X173755000Y-127545000D03*
D34*
%TO.P,J1,A5,CC1*%
%TO.N,/CC1*%
X173755000Y-126345000D03*
%TO.P,J1,A6,D+*%
%TO.N,/D+*%
X173755000Y-125345000D03*
%TO.P,J1,A7,D-*%
%TO.N,/D-*%
X173755000Y-124845000D03*
%TO.P,J1,A8,SBU1*%
%TO.N,unconnected-(J1-PadA8)*%
X173755000Y-123845000D03*
D33*
%TO.P,J1,A9,VBUS*%
%TO.N,/+5V*%
X173755000Y-122645000D03*
%TO.P,J1,A12,GND*%
%TO.N,GND*%
X173755000Y-121845000D03*
%TO.P,J1,B1,GND*%
X173755000Y-121845000D03*
%TO.P,J1,B4,VBUS*%
%TO.N,/+5V*%
X173755000Y-122645000D03*
D34*
%TO.P,J1,B5,CC2*%
%TO.N,/CC2*%
X173755000Y-123345000D03*
%TO.P,J1,B6,D+*%
%TO.N,/D+*%
X173755000Y-124345000D03*
%TO.P,J1,B7,D-*%
%TO.N,/D-*%
X173755000Y-125845000D03*
%TO.P,J1,B8,SBU2*%
%TO.N,unconnected-(J1-PadB8)*%
X173755000Y-126845000D03*
D33*
%TO.P,J1,B9,VBUS*%
%TO.N,/+5V*%
X173755000Y-127545000D03*
%TO.P,J1,B12,GND*%
%TO.N,GND*%
X173755000Y-128345000D03*
D35*
%TO.P,J1,S1,SHIELD*%
X174670000Y-120775000D03*
X174670000Y-129415000D03*
D36*
X178850000Y-120775000D03*
X178850000Y-129415000D03*
%TD*%
D16*
%TO.P,SW5,1,1*%
%TO.N,SW_1*%
X110490000Y-135890000D03*
%TO.P,SW5,2,2*%
%TO.N,Net-(D7-Pad2)*%
X116840000Y-133350000D03*
%TD*%
D15*
%TO.P,D11,1,K*%
%TO.N,SW_B*%
X162052000Y-142528000D03*
%TO.P,D11,2,A*%
%TO.N,Net-(D11-Pad2)*%
X162052000Y-140428000D03*
%TD*%
D22*
%TO.P,C8,1*%
%TO.N,VCC*%
X176784000Y-106934000D03*
%TO.P,C8,2*%
%TO.N,GND*%
X174709000Y-106934000D03*
%TD*%
D16*
%TO.P,SW8,1,1*%
%TO.N,SW_3*%
X148590000Y-116840000D03*
%TO.P,SW8,2,2*%
%TO.N,Net-(D10-Pad2)*%
X154940000Y-114300000D03*
%TD*%
D37*
%TO.N,R_Z*%
X149987000Y-89535000D03*
%TO.N,Net-(C3-Pad2)*%
X161925000Y-89953500D03*
X156860705Y-89953500D03*
X166243000Y-89408000D03*
%TO.N,GND*%
X162306000Y-110744000D03*
X169926000Y-93472000D03*
X168783000Y-118872000D03*
X167386000Y-127254000D03*
X123444000Y-85852000D03*
X154432000Y-88392000D03*
X160274000Y-106934000D03*
X104394000Y-119126000D03*
X166116000Y-96012000D03*
X174879000Y-119507000D03*
X178689000Y-119507000D03*
X100584000Y-95758000D03*
X154559000Y-85217000D03*
X162306000Y-106680000D03*
X102870000Y-139700000D03*
X168910000Y-90932000D03*
X106172000Y-88138000D03*
X94742000Y-112522000D03*
X106172000Y-85852000D03*
X168656000Y-121920000D03*
X104394000Y-131826000D03*
X167132000Y-110744000D03*
X94742000Y-118618000D03*
X172720000Y-129286000D03*
X168910000Y-96012000D03*
X154432000Y-95250000D03*
X161798000Y-85344000D03*
X167386000Y-117856000D03*
X167386000Y-96012000D03*
X173101000Y-115062000D03*
X167386000Y-90932000D03*
X94742000Y-131318000D03*
X173482000Y-106680000D03*
X94742000Y-125222000D03*
X104394000Y-125476000D03*
X176022000Y-85598000D03*
X153670000Y-101600000D03*
X154559605Y-90207396D03*
X115570000Y-85344000D03*
X108850048Y-89515884D03*
X167132000Y-106680000D03*
X117602000Y-89417502D03*
X123444000Y-88138000D03*
X166116000Y-90932000D03*
%TO.N,VCC*%
X174879000Y-108585000D03*
X154178000Y-97536000D03*
X102870000Y-100076000D03*
X176911000Y-108585000D03*
X103864500Y-89254522D03*
X119126000Y-85852000D03*
X112972484Y-89359121D03*
X107442000Y-86614000D03*
X173863000Y-108585000D03*
X116078000Y-86614000D03*
X101600000Y-85852000D03*
X175260000Y-115062000D03*
X120917803Y-89431473D03*
X175895000Y-108585000D03*
X110744000Y-85852000D03*
X170180000Y-117856000D03*
X161798000Y-87630000D03*
%TO.N,Net-(C3-Pad2)*%
X166624000Y-105156000D03*
%TO.N,/+5V*%
X115316000Y-123698000D03*
X108966000Y-123698000D03*
%TO.N,SW_A*%
X171450000Y-104902000D03*
X163576000Y-127762000D03*
%TO.N,SW_B*%
X175768000Y-102108000D03*
X178054000Y-108204000D03*
%TO.N,/IO5*%
X143002000Y-109474000D03*
X153289000Y-91059000D03*
X162560000Y-91186000D03*
%TO.N,/IO4*%
X173736000Y-89916000D03*
X177800000Y-105664000D03*
X179832000Y-108458000D03*
%TO.N,/IO3*%
X178054000Y-112776000D03*
X161798000Y-104902000D03*
X180086000Y-112776000D03*
X174752000Y-112776000D03*
%TO.N,/BOOT*%
X175260000Y-100330000D03*
X151384000Y-86614000D03*
%TO.N,/IO6*%
X161798000Y-91948000D03*
%TO.N,/IO7*%
X163538500Y-93810500D03*
%TO.N,/DIS_SDA*%
X167005000Y-100621500D03*
%TO.N,/DIS_CLK*%
X168275000Y-100621500D03*
X151765000Y-92710000D03*
%TO.N,SW_1*%
X162306000Y-101600000D03*
X132588000Y-101346000D03*
%TO.N,SW_2*%
X135382000Y-100584000D03*
X129540000Y-119634000D03*
X162306000Y-99822000D03*
%TO.N,SW_3*%
X164084000Y-100621500D03*
X156972000Y-99060000D03*
X148590000Y-119634000D03*
%TO.N,R_A*%
X109982000Y-88138000D03*
X169418000Y-101727000D03*
%TO.N,R_B*%
X118364000Y-87122000D03*
X162814000Y-97028000D03*
X171666500Y-96393000D03*
X171666500Y-101473000D03*
%TO.N,R_Z*%
X164860500Y-94596262D03*
%TD*%
D38*
%TO.N,/+5V*%
X174588000Y-122645000D02*
X173755000Y-122645000D01*
X175387000Y-123444000D02*
X174588000Y-122645000D01*
X174615371Y-127545000D02*
X175387000Y-126773371D01*
X173755000Y-127545000D02*
X174615371Y-127545000D01*
X175387000Y-126773371D02*
X175387000Y-123444000D01*
%TO.N,/DIS_CLK*%
X150297459Y-88785489D02*
X138274489Y-88785489D01*
X138274489Y-88785489D02*
X135509000Y-86020000D01*
X151130000Y-92075000D02*
X151130000Y-89618030D01*
X151765000Y-92710000D02*
X151130000Y-92075000D01*
X151130000Y-89618030D02*
X150297459Y-88785489D01*
%TO.N,/IO5*%
X143002000Y-105410000D02*
X143002000Y-109474000D01*
X152654000Y-95758000D02*
X143002000Y-105410000D01*
X153289000Y-91059000D02*
X152654000Y-91694000D01*
X152654000Y-91694000D02*
X152654000Y-95758000D01*
%TO.N,R_Z*%
X101727000Y-102743000D02*
X101727000Y-98373000D01*
X101727000Y-98373000D02*
X101712000Y-98358000D01*
X107823000Y-108839000D02*
X101727000Y-102743000D01*
X120523000Y-108839000D02*
X107823000Y-108839000D01*
X149987000Y-89535000D02*
X139827000Y-89535000D01*
X139827000Y-89535000D02*
X120523000Y-108839000D01*
%TO.N,Net-(C3-Pad2)*%
X156860705Y-89953500D02*
X157009500Y-89953500D01*
X157009500Y-89953500D02*
X157734000Y-90678000D01*
X162470500Y-89408000D02*
X161925000Y-89953500D01*
X166243000Y-89408000D02*
X162470500Y-89408000D01*
X155734000Y-92678000D02*
X155734000Y-92964000D01*
X157734000Y-90678000D02*
X155734000Y-92678000D01*
%TO.N,GND*%
X155030209Y-90678000D02*
X154559605Y-90207396D01*
X155659000Y-90678000D02*
X155030209Y-90678000D01*
%TO.N,/IO4*%
X172212000Y-88392000D02*
X173736000Y-89916000D01*
X162237391Y-88392000D02*
X172212000Y-88392000D01*
X161099391Y-89530000D02*
X162237391Y-88392000D01*
X160160000Y-89530000D02*
X161099391Y-89530000D01*
%TO.N,/IO7*%
X163068000Y-93340000D02*
X160160000Y-93340000D01*
X163538500Y-93810500D02*
X163068000Y-93340000D01*
%TO.N,R_Z*%
X164846762Y-94610000D02*
X160160000Y-94610000D01*
X164860500Y-94596262D02*
X164846762Y-94610000D01*
%TO.N,GND*%
X154559000Y-85217000D02*
X154770000Y-85217000D01*
X154770000Y-85217000D02*
X155659000Y-86106000D01*
%TO.N,SW_2*%
X174625000Y-102235000D02*
X174625000Y-103480000D01*
X171323000Y-98933000D02*
X174625000Y-102235000D01*
X163195000Y-98933000D02*
X171323000Y-98933000D01*
X162306000Y-99822000D02*
X163195000Y-98933000D01*
%TO.N,/DIS_SDA*%
X167005000Y-100621500D02*
X167005000Y-103480000D01*
%TO.N,/DIS_CLK*%
X168275000Y-100621500D02*
X168275000Y-103480000D01*
%TO.N,R_A*%
X169545000Y-101854000D02*
X169545000Y-103480000D01*
X169418000Y-101727000D02*
X169545000Y-101854000D01*
%TO.N,R_B*%
X170815000Y-102324500D02*
X170815000Y-103480000D01*
X171666500Y-101473000D02*
X170815000Y-102324500D01*
X170053011Y-98006489D02*
X163792489Y-98006489D01*
X163792489Y-98006489D02*
X162814000Y-97028000D01*
X171666500Y-96393000D02*
X170053011Y-98006489D01*
%TO.N,Net-(D3-Pad2)*%
X169647000Y-114545000D02*
X169672000Y-114570000D01*
X167386000Y-114545000D02*
X169647000Y-114545000D01*
%TO.N,/EN*%
X159644000Y-88260000D02*
X158750000Y-89154000D01*
X157718000Y-97536000D02*
X157718000Y-95287500D01*
X158750000Y-91948000D02*
X157734000Y-92964000D01*
X157755500Y-92985500D02*
X157734000Y-92964000D01*
X157755500Y-95250000D02*
X157755500Y-92985500D01*
X157718000Y-95287500D02*
X157755500Y-95250000D01*
X160160000Y-88260000D02*
X159644000Y-88260000D01*
X158750000Y-89154000D02*
X158750000Y-91948000D01*
%TO.N,GND*%
X154961500Y-100308500D02*
X153670000Y-101600000D01*
X160317000Y-108458000D02*
X160317000Y-106977000D01*
X114046000Y-88138000D02*
X114046000Y-85868000D01*
X94742000Y-113770500D02*
X94742000Y-112522000D01*
X104343000Y-131775000D02*
X104394000Y-131826000D01*
X169142500Y-120142000D02*
X169142500Y-119231500D01*
D39*
X166010000Y-95906000D02*
X166116000Y-96012000D01*
D40*
X168810000Y-93372000D02*
X168810000Y-94840000D01*
X166010000Y-92040000D02*
X168810000Y-92040000D01*
D38*
X168180000Y-106696000D02*
X167148000Y-106696000D01*
X167180000Y-110696000D02*
X167132000Y-110744000D01*
X114062000Y-85852000D02*
X115062000Y-85852000D01*
X117490000Y-89529502D02*
X117602000Y-89417502D01*
X163288000Y-110696000D02*
X162354000Y-110696000D01*
X94742000Y-120120500D02*
X94742000Y-118618000D01*
X167148000Y-106696000D02*
X167132000Y-106680000D01*
X173755000Y-121845000D02*
X173755000Y-121690000D01*
X161422000Y-85720000D02*
X161798000Y-85344000D01*
D40*
X166010000Y-93440000D02*
X168742000Y-93440000D01*
D38*
X162354000Y-110696000D02*
X162306000Y-110744000D01*
X104343000Y-125425000D02*
X104394000Y-125476000D01*
X102780000Y-131775000D02*
X104343000Y-131775000D01*
X100644000Y-95698000D02*
X101712000Y-95698000D01*
X104902000Y-85852000D02*
X106172000Y-85852000D01*
D39*
X168810000Y-92040000D02*
X168810000Y-91032000D01*
D38*
X122174000Y-88138000D02*
X123444000Y-88138000D01*
X168180000Y-106696000D02*
X168180000Y-110696000D01*
X117490000Y-90678000D02*
X117490000Y-89529502D01*
X176144000Y-85720000D02*
X176022000Y-85598000D01*
X155448000Y-100308500D02*
X154961500Y-100308500D01*
D39*
X167410000Y-90956000D02*
X167386000Y-90932000D01*
D38*
X173482000Y-106680000D02*
X174455000Y-106680000D01*
X155680500Y-95250000D02*
X154432000Y-95250000D01*
X155659000Y-86106000D02*
X155659000Y-90678000D01*
X155659000Y-88392000D02*
X154432000Y-88392000D01*
X108854000Y-90738000D02*
X108854000Y-89519836D01*
X94742000Y-132799000D02*
X94742000Y-131318000D01*
X173661000Y-128345000D02*
X173755000Y-128345000D01*
X167386000Y-116595000D02*
X167386000Y-117856000D01*
X169142500Y-119231500D02*
X168783000Y-118872000D01*
X178850000Y-120775000D02*
X178850000Y-119668000D01*
X163288000Y-106696000D02*
X163288000Y-110696000D01*
X174670000Y-129415000D02*
X174670000Y-129260000D01*
X104902000Y-88138000D02*
X106172000Y-88138000D01*
D39*
X172960000Y-115203000D02*
X173101000Y-115062000D01*
D38*
X174670000Y-129260000D02*
X173755000Y-128345000D01*
D39*
X167410000Y-95988000D02*
X167386000Y-96012000D01*
X168810000Y-93440000D02*
X169894000Y-93440000D01*
X166010000Y-94840000D02*
X166010000Y-95906000D01*
D38*
X94742000Y-126470500D02*
X94742000Y-125222000D01*
X168656000Y-121920000D02*
X168656000Y-123158000D01*
D39*
X168810000Y-91032000D02*
X168910000Y-90932000D01*
D38*
X173755000Y-121690000D02*
X174670000Y-120775000D01*
X174455000Y-106680000D02*
X174709000Y-106934000D01*
X162322000Y-106696000D02*
X162306000Y-106680000D01*
D40*
X168742000Y-93440000D02*
X168810000Y-93372000D01*
X168810000Y-94840000D02*
X166010000Y-92040000D01*
X168810000Y-92040000D02*
X168810000Y-93372000D01*
D39*
X166010000Y-92040000D02*
X166010000Y-91038000D01*
D38*
X104343000Y-119075000D02*
X104394000Y-119126000D01*
X178850000Y-119668000D02*
X178689000Y-119507000D01*
X177660000Y-85720000D02*
X176144000Y-85720000D01*
D39*
X167410000Y-94840000D02*
X167410000Y-95988000D01*
D38*
X102780000Y-139610000D02*
X102870000Y-139700000D01*
X102780000Y-125425000D02*
X104343000Y-125425000D01*
X102780000Y-119075000D02*
X104343000Y-119075000D01*
D39*
X166010000Y-91038000D02*
X166116000Y-90932000D01*
D40*
X166010000Y-94840000D02*
X166010000Y-92040000D01*
D38*
X100584000Y-95758000D02*
X100644000Y-95698000D01*
X168688000Y-127254000D02*
X167386000Y-127254000D01*
D39*
X168810000Y-94840000D02*
X168810000Y-95912000D01*
D38*
X174670000Y-120775000D02*
X174670000Y-119716000D01*
D40*
X167410000Y-92040000D02*
X167410000Y-94840000D01*
D38*
X160160000Y-85720000D02*
X161422000Y-85720000D01*
X108854000Y-89519836D02*
X108850048Y-89515884D01*
X115062000Y-85852000D02*
X115570000Y-85344000D01*
X168180000Y-110696000D02*
X167180000Y-110696000D01*
D40*
X166010000Y-94840000D02*
X168810000Y-92040000D01*
D38*
X160317000Y-106977000D02*
X160274000Y-106934000D01*
D39*
X167410000Y-92040000D02*
X167410000Y-90956000D01*
X169894000Y-93440000D02*
X169926000Y-93472000D01*
D40*
X168810000Y-94840000D02*
X166010000Y-94840000D01*
D38*
X168656000Y-123158000D02*
X168688000Y-123190000D01*
X114046000Y-85868000D02*
X114062000Y-85852000D01*
X172720000Y-129286000D02*
X173661000Y-128345000D01*
X122174000Y-85852000D02*
X123444000Y-85852000D01*
D39*
X172960000Y-116815000D02*
X172960000Y-115203000D01*
D38*
X102780000Y-138125000D02*
X102780000Y-139610000D01*
X163288000Y-106696000D02*
X162322000Y-106696000D01*
D39*
X168810000Y-95912000D02*
X168910000Y-96012000D01*
D38*
X174670000Y-119716000D02*
X174879000Y-119507000D01*
D39*
%TO.N,VCC*%
X176784000Y-108458000D02*
X176911000Y-108585000D01*
X112046000Y-90285605D02*
X112972484Y-89359121D01*
X120136500Y-90212776D02*
X120917803Y-89431473D01*
X175260000Y-110515000D02*
X176047000Y-109728000D01*
X116190000Y-88018000D02*
X116190000Y-86726000D01*
X120136500Y-90424000D02*
X120136500Y-90212776D01*
X170180000Y-117856000D02*
X169672000Y-117348000D01*
X157734000Y-86106000D02*
X157734000Y-88392000D01*
X175260000Y-110515000D02*
X175895000Y-109880000D01*
X160160000Y-86990000D02*
X159136000Y-86990000D01*
X174752000Y-109347000D02*
X174752000Y-108712000D01*
X102902000Y-90424000D02*
X102902000Y-90217022D01*
X176911000Y-109474000D02*
X175870000Y-110515000D01*
X173736000Y-108712000D02*
X173863000Y-108585000D01*
X111987000Y-85852000D02*
X110744000Y-85852000D01*
X174777000Y-110515000D02*
X173736000Y-109474000D01*
X107554000Y-88078000D02*
X107554000Y-86726000D01*
X175260000Y-109855000D02*
X174752000Y-109347000D01*
X175260000Y-116815000D02*
X175260000Y-115062000D01*
X103012000Y-98358000D02*
X103012000Y-99934000D01*
X103012000Y-99934000D02*
X102870000Y-100076000D01*
X161158000Y-86990000D02*
X160160000Y-86990000D01*
X160160000Y-86990000D02*
X158618000Y-86990000D01*
X174752000Y-108712000D02*
X174879000Y-108585000D01*
X112046000Y-90424000D02*
X112046000Y-90285605D01*
X161798000Y-87630000D02*
X161158000Y-86990000D01*
X176784000Y-106934000D02*
X176784000Y-108458000D01*
X107554000Y-86726000D02*
X107442000Y-86614000D01*
X158618000Y-86990000D02*
X157734000Y-86106000D01*
X176911000Y-108585000D02*
X176911000Y-109474000D01*
X102827000Y-85852000D02*
X101600000Y-85852000D01*
X120099000Y-85852000D02*
X119126000Y-85852000D01*
X159136000Y-86990000D02*
X157734000Y-88392000D01*
X175870000Y-110515000D02*
X175260000Y-110515000D01*
X175260000Y-110515000D02*
X174777000Y-110515000D01*
X102902000Y-90217022D02*
X103864500Y-89254522D01*
X169672000Y-117348000D02*
X169672000Y-116570000D01*
X155718000Y-97536000D02*
X154178000Y-97536000D01*
X175260000Y-110515000D02*
X175260000Y-109855000D01*
X173736000Y-109474000D02*
X173736000Y-108712000D01*
X116190000Y-86726000D02*
X116078000Y-86614000D01*
X175895000Y-109880000D02*
X175895000Y-108585000D01*
D38*
%TO.N,Net-(C3-Pad2)*%
X165438000Y-106696000D02*
X165438000Y-110696000D01*
X157734000Y-90424000D02*
X157734000Y-90678000D01*
X165438000Y-106342000D02*
X166624000Y-105156000D01*
X165438000Y-106696000D02*
X165438000Y-106342000D01*
D39*
%TO.N,/+5V*%
X172683000Y-127545000D02*
X173755000Y-127545000D01*
X92710000Y-124227500D02*
X92710000Y-126513500D01*
X172868500Y-118491000D02*
X176911000Y-118491000D01*
X94793000Y-134925000D02*
X94742000Y-134874000D01*
X94771500Y-122225000D02*
X94742000Y-122195500D01*
X171217500Y-121132500D02*
X171217500Y-120142000D01*
X97850500Y-115845500D02*
X97880000Y-115875000D01*
X92710000Y-126513500D02*
X94742000Y-128545500D01*
X170180000Y-130048000D02*
X172683000Y-127545000D01*
X177560000Y-117842000D02*
X177560000Y-116815000D01*
X171217500Y-120142000D02*
X172868500Y-118491000D01*
X176911000Y-118491000D02*
X177560000Y-117842000D01*
X97880000Y-122225000D02*
X99353000Y-123698000D01*
X97880000Y-128575000D02*
X94771500Y-128575000D01*
X94742000Y-122195500D02*
X92710000Y-124227500D01*
X92710000Y-130577500D02*
X92710000Y-132842000D01*
X97880000Y-134925000D02*
X94793000Y-134925000D01*
X172730000Y-122645000D02*
X171217500Y-121132500D01*
X121666000Y-130048000D02*
X170180000Y-130048000D01*
X94771500Y-128575000D02*
X94742000Y-128545500D01*
X115316000Y-123698000D02*
X121666000Y-130048000D01*
X173755000Y-122645000D02*
X172730000Y-122645000D01*
X97880000Y-122225000D02*
X94771500Y-122225000D01*
X94742000Y-115845500D02*
X92710000Y-117877500D01*
X99353000Y-123698000D02*
X108966000Y-123698000D01*
X92710000Y-117877500D02*
X92710000Y-120163500D01*
X94742000Y-128545500D02*
X92710000Y-130577500D01*
X94742000Y-115845500D02*
X97850500Y-115845500D01*
X92710000Y-132842000D02*
X94742000Y-134874000D01*
X92710000Y-120163500D02*
X94742000Y-122195500D01*
D41*
%TO.N,/D-*%
X155448000Y-102383500D02*
X154410500Y-102383500D01*
X168069739Y-124646102D02*
X172828889Y-124646102D01*
X153416000Y-103378000D02*
X153416000Y-105156000D01*
X172828889Y-124696111D02*
X173606111Y-124696111D01*
X173606111Y-124696111D02*
X173755000Y-124845000D01*
X153416000Y-105156000D02*
X154670000Y-106410000D01*
X154410500Y-102383500D02*
X153416000Y-103378000D01*
X156313200Y-107275200D02*
X156313200Y-112889563D01*
X172720000Y-125102778D02*
X172828889Y-124993889D01*
X172828889Y-124993889D02*
X173755000Y-124993889D01*
X155448000Y-106410000D02*
X156313200Y-107275200D01*
X173089000Y-125845000D02*
X172720000Y-125476000D01*
X154670000Y-106410000D02*
X155448000Y-106410000D01*
X156313200Y-112889563D02*
X168069739Y-124646102D01*
X173755000Y-125845000D02*
X173089000Y-125845000D01*
X172828889Y-124646102D02*
X172828889Y-124696111D01*
X172720000Y-125476000D02*
X172720000Y-125102778D01*
%TO.N,/D+*%
X174752000Y-124564778D02*
X174752000Y-125125222D01*
X174752000Y-125125222D02*
X174532222Y-125345000D01*
X174532222Y-125345000D02*
X173755000Y-125345000D01*
X173681527Y-124345000D02*
X173755000Y-124345000D01*
X156614800Y-112764649D02*
X168194662Y-124344511D01*
X158242000Y-108458000D02*
X158242000Y-107172000D01*
X173755000Y-124345000D02*
X174532222Y-124345000D01*
X156614800Y-107275200D02*
X156614800Y-112764649D01*
X173681038Y-124344511D02*
X173681527Y-124345000D01*
X157480000Y-106410000D02*
X156614800Y-107275200D01*
X158242000Y-107172000D02*
X157480000Y-106410000D01*
X168194662Y-124344511D02*
X173681038Y-124344511D01*
X174532222Y-124345000D02*
X174752000Y-124564778D01*
D38*
%TO.N,Net-(C13-Pad1)*%
X110490000Y-89619000D02*
X111971000Y-88138000D01*
X109076978Y-92710000D02*
X112046000Y-92710000D01*
X108204000Y-91837022D02*
X109076978Y-92710000D01*
X108204000Y-90738000D02*
X108204000Y-91837022D01*
X110490000Y-91154000D02*
X110490000Y-89619000D01*
X112046000Y-92710000D02*
X110490000Y-91154000D01*
%TO.N,Net-(C14-Pad1)*%
X120136500Y-92583000D02*
X117645978Y-92583000D01*
X119086980Y-89150020D02*
X120099000Y-88138000D01*
X119086980Y-91533480D02*
X119086980Y-89150020D01*
X120136500Y-92583000D02*
X119086980Y-91533480D01*
X116840000Y-91777022D02*
X116840000Y-90678000D01*
X117645978Y-92583000D02*
X116840000Y-91777022D01*
%TO.N,Net-(C15-Pad1)*%
X102902000Y-92710000D02*
X102684609Y-92710000D01*
X101346000Y-91371391D02*
X101346000Y-89619000D01*
X102362000Y-93250000D02*
X102902000Y-92710000D01*
X102684609Y-92710000D02*
X101346000Y-91371391D01*
X102362000Y-95698000D02*
X102362000Y-93250000D01*
X101346000Y-89619000D02*
X102827000Y-88138000D01*
%TO.N,Net-(D1-Pad2)*%
X97880000Y-119075000D02*
X99630000Y-119075000D01*
X99630000Y-119075000D02*
X102780000Y-122225000D01*
%TO.N,Net-(D2-Pad2)*%
X99630000Y-125425000D02*
X102780000Y-128575000D01*
X97880000Y-125425000D02*
X99630000Y-125425000D01*
%TO.N,Net-(D3-Pad2)*%
X167157000Y-114570000D02*
X167132000Y-114545000D01*
%TO.N,Net-(D4-Pad2)*%
X97880000Y-131775000D02*
X99630000Y-131775000D01*
X99630000Y-131775000D02*
X102780000Y-134925000D01*
%TO.N,SW_A*%
X123698000Y-122970000D02*
X143002000Y-122970000D01*
X172085000Y-103480000D02*
X172085000Y-104267000D01*
X157006000Y-127796000D02*
X162052000Y-127796000D01*
X143036000Y-122936000D02*
X152146000Y-122936000D01*
X163576000Y-127762000D02*
X163542000Y-127796000D01*
X163542000Y-127796000D02*
X162052000Y-127796000D01*
X172085000Y-104267000D02*
X171450000Y-104902000D01*
X152146000Y-122936000D02*
X157006000Y-127796000D01*
X143002000Y-122970000D02*
X143036000Y-122936000D01*
%TO.N,Net-(D6-Pad2)*%
X123698000Y-117348000D02*
X123698000Y-120870000D01*
X120650000Y-114300000D02*
X123698000Y-117348000D01*
X116840000Y-114300000D02*
X120650000Y-114300000D01*
%TO.N,SW_B*%
X163379113Y-142528000D02*
X161832000Y-142528000D01*
X179070000Y-117856000D02*
X176875520Y-120050480D01*
X176875520Y-120050480D02*
X176875520Y-129031593D01*
X178054000Y-108204000D02*
X179070000Y-109220000D01*
X175895000Y-102235000D02*
X175895000Y-103480000D01*
X176875520Y-129031593D02*
X163379113Y-142528000D01*
X175768000Y-102108000D02*
X175895000Y-102235000D01*
X179070000Y-109220000D02*
X179070000Y-117856000D01*
X123444000Y-142528000D02*
X143002000Y-142528000D01*
X161832000Y-142528000D02*
X162052000Y-142528000D01*
X143002000Y-142528000D02*
X161832000Y-142528000D01*
%TO.N,Net-(D7-Pad2)*%
X123444000Y-139954000D02*
X116840000Y-133350000D01*
X123444000Y-140428000D02*
X123444000Y-139954000D01*
%TO.N,Net-(D8-Pad2)*%
X143002000Y-117314000D02*
X139988000Y-114300000D01*
X139988000Y-114300000D02*
X135890000Y-114300000D01*
X143002000Y-120870000D02*
X143002000Y-117314000D01*
%TO.N,Net-(D9-Pad2)*%
X143002000Y-140428000D02*
X142968000Y-140428000D01*
X142968000Y-140428000D02*
X135890000Y-133350000D01*
%TO.N,Net-(D10-Pad2)*%
X162052000Y-125696000D02*
X160240000Y-125696000D01*
X158242000Y-123698000D02*
X158242000Y-117602000D01*
X160240000Y-125696000D02*
X158242000Y-123698000D01*
X158242000Y-117602000D02*
X154940000Y-114300000D01*
%TO.N,Net-(D11-Pad2)*%
X162052000Y-140428000D02*
X162018000Y-140428000D01*
X162018000Y-140428000D02*
X154940000Y-133350000D01*
D41*
%TO.N,/CC1*%
X171597000Y-126345000D02*
X173755000Y-126345000D01*
X170688000Y-127254000D02*
X171597000Y-126345000D01*
D38*
%TO.N,/CC2*%
X173755000Y-123345000D02*
X170843000Y-123345000D01*
X170843000Y-123345000D02*
X170688000Y-123190000D01*
%TO.N,/IO5*%
X162174000Y-90800000D02*
X162560000Y-91186000D01*
X160160000Y-90800000D02*
X162174000Y-90800000D01*
%TO.N,/IO4*%
X179832000Y-107696000D02*
X179832000Y-108458000D01*
X177800000Y-105664000D02*
X179832000Y-107696000D01*
%TO.N,/IO3*%
X171455000Y-140203000D02*
X171455000Y-145415000D01*
X161925000Y-103480000D02*
X161798000Y-103607000D01*
X180086000Y-112776000D02*
X180340000Y-113030000D01*
X180340000Y-113030000D02*
X180340000Y-131318000D01*
X174752000Y-112776000D02*
X178054000Y-112776000D01*
X161798000Y-103607000D02*
X161798000Y-104902000D01*
X180340000Y-131318000D02*
X171455000Y-140203000D01*
%TO.N,/IO2*%
X173995000Y-139441000D02*
X181102000Y-132334000D01*
X181102000Y-89662000D02*
X179700000Y-88260000D01*
X173995000Y-145415000D02*
X173995000Y-139441000D01*
X179700000Y-88260000D02*
X177660000Y-88260000D01*
X181102000Y-132334000D02*
X181102000Y-89662000D01*
%TO.N,/IO1*%
X176535000Y-138425000D02*
X181864000Y-133096000D01*
X180340000Y-86868000D02*
X177782000Y-86868000D01*
X176535000Y-145415000D02*
X176535000Y-138425000D01*
X181864000Y-133096000D02*
X181864000Y-88392000D01*
X177782000Y-86868000D02*
X177660000Y-86990000D01*
X181864000Y-88392000D02*
X180340000Y-86868000D01*
%TO.N,/BOOT*%
X173990000Y-104902000D02*
X176472022Y-104902000D01*
X142707000Y-88138000D02*
X140589000Y-86020000D01*
X177660000Y-103714022D02*
X177660000Y-102230000D01*
X177660000Y-102230000D02*
X177160000Y-102230000D01*
X172196000Y-106696000D02*
X173990000Y-104902000D01*
X176472022Y-104902000D02*
X177660000Y-103714022D01*
X149860000Y-88138000D02*
X142707000Y-88138000D01*
X170330000Y-106696000D02*
X172196000Y-106696000D01*
X170330000Y-110696000D02*
X170330000Y-106696000D01*
X151384000Y-86614000D02*
X149860000Y-88138000D01*
X177160000Y-102230000D02*
X175260000Y-100330000D01*
%TO.N,/IO6*%
X160160000Y-92070000D02*
X161676000Y-92070000D01*
X161676000Y-92070000D02*
X161798000Y-91948000D01*
D41*
%TO.N,/USB_D+*%
X159034999Y-102230000D02*
X158550799Y-101745800D01*
X158538727Y-101745800D02*
X157480000Y-102804527D01*
X160160000Y-102230000D02*
X159034999Y-102230000D01*
X158550799Y-101745800D02*
X158538727Y-101745800D01*
X157480000Y-102804527D02*
X157480000Y-104410000D01*
%TO.N,/USB_D-*%
X160160000Y-100960000D02*
X159034999Y-100960000D01*
X159034999Y-100960000D02*
X158550799Y-101444200D01*
X158413800Y-101444200D02*
X155448000Y-104410000D01*
X158550799Y-101444200D02*
X158413800Y-101444200D01*
D38*
%TO.N,/Rotary_A*%
X116078000Y-92710000D02*
X118364000Y-94996000D01*
X114046000Y-92710000D02*
X116078000Y-92710000D01*
X118364000Y-94996000D02*
X118364000Y-100279000D01*
X114046000Y-92710000D02*
X114046000Y-90424000D01*
X118364000Y-100279000D02*
X121550000Y-103465000D01*
%TO.N,/Rotary_B*%
X121550000Y-98465000D02*
X121550000Y-93169500D01*
X121550000Y-93169500D02*
X122136500Y-92583000D01*
X122136500Y-92583000D02*
X122136500Y-90424000D01*
%TO.N,/Rotary_Z*%
X104902000Y-96317000D02*
X107050000Y-98465000D01*
X104902000Y-92710000D02*
X104902000Y-90424000D01*
X104902000Y-92710000D02*
X104902000Y-96317000D01*
%TO.N,SW_1*%
X132588000Y-101346000D02*
X127000000Y-106934000D01*
X163195000Y-102489000D02*
X162306000Y-101600000D01*
X110490000Y-116840000D02*
X117602000Y-109728000D01*
X163195000Y-103480000D02*
X163195000Y-102489000D01*
X110490000Y-116840000D02*
X110490000Y-135890000D01*
X124206000Y-109728000D02*
X127000000Y-106934000D01*
X117602000Y-109728000D02*
X124206000Y-109728000D01*
%TO.N,SW_2*%
X129540000Y-116840000D02*
X129540000Y-119634000D01*
X129540000Y-116840000D02*
X129540000Y-106426000D01*
X129540000Y-106426000D02*
X135382000Y-100584000D01*
%TO.N,SW_3*%
X156972000Y-99060000D02*
X154178000Y-99060000D01*
X164883500Y-99822000D02*
X164084000Y-100621500D01*
X146812000Y-106426000D02*
X146812000Y-115062000D01*
X173355000Y-101981000D02*
X171196000Y-99822000D01*
X173355000Y-103480000D02*
X173355000Y-101981000D01*
X154178000Y-99060000D02*
X146812000Y-106426000D01*
X146812000Y-115062000D02*
X148590000Y-116840000D01*
X171196000Y-99822000D02*
X164883500Y-99822000D01*
X148590000Y-116840000D02*
X148590000Y-119634000D01*
%TO.N,R_A*%
X109922000Y-88078000D02*
X109982000Y-88138000D01*
X108854000Y-88078000D02*
X109922000Y-88078000D01*
%TO.N,R_B*%
X117490000Y-87996000D02*
X118364000Y-87122000D01*
X117490000Y-88018000D02*
X117490000Y-87996000D01*
%TD*%
M02*
