%TF.GenerationSoftware,KiCad,Pcbnew,(6.0.4)*%
%TF.CreationDate,2022-05-01T14:15:37+08:00*%
%TF.ProjectId,S3_module,53335f6d-6f64-4756-9c65-2e6b69636164,rev?*%
%TF.SameCoordinates,Original*%
%TF.FileFunction,Paste,Top*%
%TF.FilePolarity,Positive*%
%FSLAX46Y46*%
G04 Gerber Fmt 4.6, Leading zero omitted, Abs format (unit mm)*
G04 Created by KiCad (PCBNEW (6.0.4)) date 2022-05-01 14:15:37*
%MOMM*%
%LPD*%
G01*
G04 APERTURE LIST*
G04 Aperture macros list*
%AMRoundRect*
0 Rectangle with rounded corners*
0 $1 Rounding radius*
0 $2 $3 $4 $5 $6 $7 $8 $9 X,Y pos of 4 corners*
0 Add a 4 corners polygon primitive as box body*
4,1,4,$2,$3,$4,$5,$6,$7,$8,$9,$2,$3,0*
0 Add four circle primitives for the rounded corners*
1,1,$1+$1,$2,$3*
1,1,$1+$1,$4,$5*
1,1,$1+$1,$6,$7*
1,1,$1+$1,$8,$9*
0 Add four rect primitives between the rounded corners*
20,1,$1+$1,$2,$3,$4,$5,0*
20,1,$1+$1,$4,$5,$6,$7,0*
20,1,$1+$1,$6,$7,$8,$9,0*
20,1,$1+$1,$8,$9,$2,$3,0*%
G04 Aperture macros list end*
%ADD10RoundRect,0.250000X-0.475000X0.337500X-0.475000X-0.337500X0.475000X-0.337500X0.475000X0.337500X0*%
%ADD11RoundRect,0.250000X0.450000X-0.350000X0.450000X0.350000X-0.450000X0.350000X-0.450000X-0.350000X0*%
%ADD12RoundRect,0.250000X-0.337500X-0.475000X0.337500X-0.475000X0.337500X0.475000X-0.337500X0.475000X0*%
%ADD13R,0.450000X0.600000*%
%ADD14RoundRect,0.200000X0.200000X-0.700000X0.200000X0.700000X-0.200000X0.700000X-0.200000X-0.700000X0*%
%ADD15RoundRect,0.250000X-0.350000X-0.450000X0.350000X-0.450000X0.350000X0.450000X-0.350000X0.450000X0*%
%ADD16R,0.400000X1.500000*%
%ADD17RoundRect,0.250000X0.475000X-0.337500X0.475000X0.337500X-0.475000X0.337500X-0.475000X-0.337500X0*%
%ADD18RoundRect,0.250000X0.337500X0.475000X-0.337500X0.475000X-0.337500X-0.475000X0.337500X-0.475000X0*%
%ADD19R,1.500000X1.000000*%
%ADD20RoundRect,0.250000X0.350000X0.450000X-0.350000X0.450000X-0.350000X-0.450000X0.350000X-0.450000X0*%
%ADD21R,0.900000X0.900000*%
%ADD22R,1.500000X0.900000*%
%ADD23R,0.900000X1.500000*%
%ADD24RoundRect,0.250000X0.450000X-0.325000X0.450000X0.325000X-0.450000X0.325000X-0.450000X-0.325000X0*%
%ADD25R,1.500000X2.000000*%
%ADD26R,3.800000X2.000000*%
%ADD27R,1.450000X0.600000*%
%ADD28R,1.450000X0.300000*%
G04 APERTURE END LIST*
D10*
%TO.C,C5*%
X94742000Y-132799000D03*
X94742000Y-134874000D03*
%TD*%
D11*
%TO.C,R5*%
X169672000Y-116570000D03*
X169672000Y-114570000D03*
%TD*%
D12*
%TO.C,C3*%
X155659000Y-90678000D03*
X157734000Y-90678000D03*
%TD*%
D13*
%TO.C,D7*%
X123444000Y-142528000D03*
X123444000Y-140428000D03*
%TD*%
%TO.C,D6*%
X123698000Y-122970000D03*
X123698000Y-120870000D03*
%TD*%
D14*
%TO.C,SW2*%
X163288000Y-110696000D03*
X163288000Y-106696000D03*
X165438000Y-110696000D03*
X165438000Y-106696000D03*
%TD*%
D12*
%TO.C,C18*%
X104902000Y-85852000D03*
X102827000Y-85852000D03*
%TD*%
%TO.C,C14*%
X122174000Y-88138000D03*
X120099000Y-88138000D03*
%TD*%
D14*
%TO.C,SW1*%
X168180000Y-106696000D03*
X168180000Y-110696000D03*
X170330000Y-110696000D03*
X170330000Y-106696000D03*
%TD*%
D15*
%TO.C,R10*%
X104902000Y-90424000D03*
X102902000Y-90424000D03*
%TD*%
D16*
%TO.C,U5*%
X103012000Y-95698000D03*
X102362000Y-95698000D03*
X101712000Y-95698000D03*
X101712000Y-98358000D03*
X103012000Y-98358000D03*
%TD*%
D15*
%TO.C,R2*%
X155734000Y-92964000D03*
X157734000Y-92964000D03*
%TD*%
D13*
%TO.C,D8*%
X143002000Y-122970000D03*
X143002000Y-120870000D03*
%TD*%
D11*
%TO.C,R6*%
X157480000Y-106410000D03*
X157480000Y-104410000D03*
%TD*%
D12*
%TO.C,C12*%
X158242000Y-108458000D03*
X160317000Y-108458000D03*
%TD*%
D10*
%TO.C,C9*%
X94742000Y-120120500D03*
X94742000Y-122195500D03*
%TD*%
D17*
%TO.C,C11*%
X155448000Y-102383500D03*
X155448000Y-100308500D03*
%TD*%
D12*
%TO.C,C16*%
X114062000Y-85852000D03*
X111987000Y-85852000D03*
%TD*%
D18*
%TO.C,C2*%
X157734000Y-88392000D03*
X155659000Y-88392000D03*
%TD*%
D19*
%TO.C,D2*%
X97880000Y-122225000D03*
X97880000Y-125425000D03*
X102780000Y-125425000D03*
X102780000Y-122225000D03*
%TD*%
D18*
%TO.C,C1*%
X157755500Y-95250000D03*
X155680500Y-95250000D03*
%TD*%
D15*
%TO.C,R8*%
X114046000Y-90424000D03*
X112046000Y-90424000D03*
%TD*%
D10*
%TO.C,C7*%
X94742000Y-113770500D03*
X94742000Y-115845500D03*
%TD*%
D18*
%TO.C,C4*%
X157734000Y-86106000D03*
X155659000Y-86106000D03*
%TD*%
D11*
%TO.C,R7*%
X155448000Y-106410000D03*
X155448000Y-104410000D03*
%TD*%
D16*
%TO.C,U3*%
X107554000Y-90738000D03*
X108204000Y-90738000D03*
X108854000Y-90738000D03*
X108854000Y-88078000D03*
X107554000Y-88078000D03*
%TD*%
D20*
%TO.C,R4*%
X170688000Y-123190000D03*
X168688000Y-123190000D03*
%TD*%
D12*
%TO.C,C15*%
X104902000Y-88138000D03*
X102827000Y-88138000D03*
%TD*%
D15*
%TO.C,R9*%
X122136500Y-90424000D03*
X120136500Y-90424000D03*
%TD*%
D19*
%TO.C,D1*%
X97880000Y-115875000D03*
X97880000Y-119075000D03*
X102780000Y-119075000D03*
X102780000Y-115875000D03*
%TD*%
%TO.C,D4*%
X97880000Y-128575000D03*
X97880000Y-131775000D03*
X102780000Y-131775000D03*
X102780000Y-128575000D03*
%TD*%
D13*
%TO.C,D9*%
X143002000Y-142528000D03*
X143002000Y-140428000D03*
%TD*%
D21*
%TO.C,U2*%
X168810000Y-93440000D03*
X166010000Y-93440000D03*
X167410000Y-92040000D03*
X167410000Y-94840000D03*
X166010000Y-94840000D03*
X168810000Y-92040000D03*
X166010000Y-92040000D03*
X167410000Y-93440000D03*
X168810000Y-94840000D03*
D22*
X177660000Y-85720000D03*
X177660000Y-86990000D03*
X177660000Y-88260000D03*
X177660000Y-89530000D03*
X177660000Y-90800000D03*
X177660000Y-92070000D03*
X177660000Y-93340000D03*
X177660000Y-94610000D03*
X177660000Y-95880000D03*
X177660000Y-97150000D03*
X177660000Y-98420000D03*
X177660000Y-99690000D03*
X177660000Y-100960000D03*
X177660000Y-102230000D03*
D23*
X175895000Y-103480000D03*
X174625000Y-103480000D03*
X173355000Y-103480000D03*
X172085000Y-103480000D03*
X170815000Y-103480000D03*
X169545000Y-103480000D03*
X168275000Y-103480000D03*
X167005000Y-103480000D03*
X165735000Y-103480000D03*
X164465000Y-103480000D03*
X163195000Y-103480000D03*
X161925000Y-103480000D03*
D22*
X160160000Y-102230000D03*
X160160000Y-100960000D03*
X160160000Y-99690000D03*
X160160000Y-98420000D03*
X160160000Y-97150000D03*
X160160000Y-95880000D03*
X160160000Y-94610000D03*
X160160000Y-93340000D03*
X160160000Y-92070000D03*
X160160000Y-90800000D03*
X160160000Y-89530000D03*
X160160000Y-88260000D03*
X160160000Y-86990000D03*
X160160000Y-85720000D03*
%TD*%
D20*
%TO.C,R13*%
X102902000Y-92710000D03*
X104902000Y-92710000D03*
%TD*%
D12*
%TO.C,C17*%
X122174000Y-85852000D03*
X120099000Y-85852000D03*
%TD*%
D20*
%TO.C,R12*%
X120136500Y-92583000D03*
X122136500Y-92583000D03*
%TD*%
D15*
%TO.C,R1*%
X155718000Y-97536000D03*
X157718000Y-97536000D03*
%TD*%
D20*
%TO.C,R3*%
X170688000Y-127254000D03*
X168688000Y-127254000D03*
%TD*%
D13*
%TO.C,D10*%
X162052000Y-127796000D03*
X162052000Y-125696000D03*
%TD*%
D20*
%TO.C,R11*%
X112046000Y-92710000D03*
X114046000Y-92710000D03*
%TD*%
D10*
%TO.C,C10*%
X94742000Y-126470500D03*
X94742000Y-128545500D03*
%TD*%
D12*
%TO.C,C13*%
X114046000Y-88138000D03*
X111971000Y-88138000D03*
%TD*%
D24*
%TO.C,D3*%
X167386000Y-116595000D03*
X167386000Y-114545000D03*
%TD*%
D18*
%TO.C,C6*%
X171217500Y-120142000D03*
X169142500Y-120142000D03*
%TD*%
D19*
%TO.C,D5*%
X97880000Y-134925000D03*
X97880000Y-138125000D03*
X102780000Y-138125000D03*
X102780000Y-134925000D03*
%TD*%
D16*
%TO.C,U4*%
X116190000Y-90678000D03*
X116840000Y-90678000D03*
X117490000Y-90678000D03*
X117490000Y-88018000D03*
X116190000Y-88018000D03*
%TD*%
D25*
%TO.C,U1*%
X172960000Y-116815000D03*
D26*
X175260000Y-110515000D03*
D25*
X175260000Y-116815000D03*
X177560000Y-116815000D03*
%TD*%
D27*
%TO.C,J1*%
X173755000Y-128345000D03*
X173755000Y-127545000D03*
D28*
X173755000Y-126345000D03*
X173755000Y-125345000D03*
X173755000Y-124845000D03*
X173755000Y-123845000D03*
D27*
X173755000Y-122645000D03*
X173755000Y-121845000D03*
X173755000Y-121845000D03*
X173755000Y-122645000D03*
D28*
X173755000Y-123345000D03*
X173755000Y-124345000D03*
X173755000Y-125845000D03*
X173755000Y-126845000D03*
D27*
X173755000Y-127545000D03*
X173755000Y-128345000D03*
%TD*%
D13*
%TO.C,D11*%
X162052000Y-142528000D03*
X162052000Y-140428000D03*
%TD*%
D18*
%TO.C,C8*%
X176784000Y-106934000D03*
X174709000Y-106934000D03*
%TD*%
M02*
