%TF.GenerationSoftware,KiCad,Pcbnew,(6.0.4)*%
%TF.CreationDate,2022-05-01T16:05:16+08:00*%
%TF.ProjectId,S3_module,53335f6d-6f64-4756-9c65-2e6b69636164,rev?*%
%TF.SameCoordinates,Original*%
%TF.FileFunction,Soldermask,Bot*%
%TF.FilePolarity,Negative*%
%FSLAX46Y46*%
G04 Gerber Fmt 4.6, Leading zero omitted, Abs format (unit mm)*
G04 Created by KiCad (PCBNEW (6.0.4)) date 2022-05-01 16:05:16*
%MOMM*%
%LPD*%
G01*
G04 APERTURE LIST*
%ADD10R,1.700000X1.700000*%
%ADD11O,1.700000X1.700000*%
%ADD12C,4.000000*%
%ADD13C,2.500000*%
%ADD14C,2.000000*%
%ADD15R,2.000000X2.000000*%
%ADD16R,3.200000X2.000000*%
%ADD17C,0.650000*%
%ADD18O,2.100000X1.000000*%
%ADD19O,1.600000X1.000000*%
G04 APERTURE END LIST*
D10*
%TO.C,J2*%
X166375000Y-145415000D03*
D11*
X168915000Y-145415000D03*
X171455000Y-145415000D03*
X173995000Y-145415000D03*
X176535000Y-145415000D03*
%TD*%
D12*
%TO.C,SW4*%
X114300000Y-119380000D03*
D13*
X110490000Y-116840000D03*
X116840000Y-114300000D03*
%TD*%
D14*
%TO.C,U6*%
X130429000Y-86020000D03*
X132969000Y-86020000D03*
X135509000Y-86020000D03*
X138049000Y-86020000D03*
X140589000Y-86020000D03*
X143129000Y-86020000D03*
X145669000Y-86020000D03*
X148209000Y-86020000D03*
%TD*%
D12*
%TO.C,SW9*%
X152400000Y-138430000D03*
D13*
X148590000Y-135890000D03*
X154940000Y-133350000D03*
%TD*%
D15*
%TO.C,SW3*%
X121550000Y-103465000D03*
D14*
X121550000Y-98465000D03*
X121550000Y-100965000D03*
D16*
X114050000Y-106565000D03*
X114050000Y-95365000D03*
D14*
X107050000Y-98465000D03*
X107050000Y-103465000D03*
%TD*%
D12*
%TO.C,SW6*%
X133350000Y-119380000D03*
D13*
X129540000Y-116840000D03*
X135890000Y-114300000D03*
%TD*%
D12*
%TO.C,SW7*%
X133350000Y-138430000D03*
D13*
X129540000Y-135890000D03*
X135890000Y-133350000D03*
%TD*%
D17*
%TO.C,J1*%
X175200000Y-127985000D03*
X175200000Y-122205000D03*
D18*
X174670000Y-120775000D03*
X174670000Y-129415000D03*
D19*
X178850000Y-120775000D03*
X178850000Y-129415000D03*
%TD*%
D12*
%TO.C,SW5*%
X114300000Y-138430000D03*
D13*
X110490000Y-135890000D03*
X116840000Y-133350000D03*
%TD*%
D12*
%TO.C,SW8*%
X152400000Y-119380000D03*
D13*
X148590000Y-116840000D03*
X154940000Y-114300000D03*
%TD*%
M02*
