%TF.GenerationSoftware,KiCad,Pcbnew,(6.0.4)*%
%TF.CreationDate,2022-05-01T14:15:37+08:00*%
%TF.ProjectId,S3_module,53335f6d-6f64-4756-9c65-2e6b69636164,rev?*%
%TF.SameCoordinates,Original*%
%TF.FileFunction,Copper,L4,Bot*%
%TF.FilePolarity,Positive*%
%FSLAX46Y46*%
G04 Gerber Fmt 4.6, Leading zero omitted, Abs format (unit mm)*
G04 Created by KiCad (PCBNEW (6.0.4)) date 2022-05-01 14:15:37*
%MOMM*%
%LPD*%
G01*
G04 APERTURE LIST*
%TA.AperFunction,ComponentPad*%
%ADD10R,1.700000X1.700000*%
%TD*%
%TA.AperFunction,ComponentPad*%
%ADD11O,1.700000X1.700000*%
%TD*%
%TA.AperFunction,ComponentPad*%
%ADD12C,2.500000*%
%TD*%
%TA.AperFunction,ComponentPad*%
%ADD13C,2.000000*%
%TD*%
%TA.AperFunction,ComponentPad*%
%ADD14R,2.000000X2.000000*%
%TD*%
%TA.AperFunction,ComponentPad*%
%ADD15R,3.200000X2.000000*%
%TD*%
%TA.AperFunction,ComponentPad*%
%ADD16O,2.100000X1.000000*%
%TD*%
%TA.AperFunction,ComponentPad*%
%ADD17O,1.600000X1.000000*%
%TD*%
%TA.AperFunction,ViaPad*%
%ADD18C,0.800000*%
%TD*%
%TA.AperFunction,Conductor*%
%ADD19C,0.300000*%
%TD*%
%TA.AperFunction,Conductor*%
%ADD20C,0.500000*%
%TD*%
G04 APERTURE END LIST*
D10*
%TO.P,J2,1,Pin_1*%
%TO.N,/IO5*%
X166375000Y-145415000D03*
D11*
%TO.P,J2,2,Pin_2*%
%TO.N,/IO4*%
X168915000Y-145415000D03*
%TO.P,J2,3,Pin_3*%
%TO.N,/IO3*%
X171455000Y-145415000D03*
%TO.P,J2,4,Pin_4*%
%TO.N,/IO2*%
X173995000Y-145415000D03*
%TO.P,J2,5,Pin_5*%
%TO.N,/IO1*%
X176535000Y-145415000D03*
%TD*%
D12*
%TO.P,SW4,1,1*%
%TO.N,SW_1*%
X110490000Y-116840000D03*
%TO.P,SW4,2,2*%
%TO.N,Net-(D6-Pad2)*%
X116840000Y-114300000D03*
%TD*%
D13*
%TO.P,U6,1,GND*%
%TO.N,GND*%
X130429000Y-86020000D03*
%TO.P,U6,2,VCC*%
%TO.N,VCC*%
X132969000Y-86020000D03*
%TO.P,U6,3,SCL*%
%TO.N,/DIS_CLK*%
X135509000Y-86020000D03*
%TO.P,U6,4,SDA*%
%TO.N,/DIS_SDA*%
X138049000Y-86020000D03*
%TO.P,U6,5,RES*%
%TO.N,/BOOT*%
X140589000Y-86020000D03*
%TO.P,U6,6,DC*%
%TO.N,/IO6*%
X143129000Y-86020000D03*
%TO.P,U6,7,CS*%
%TO.N,/IO7*%
X145669000Y-86020000D03*
%TO.P,U6,8,BLK*%
%TO.N,unconnected-(U6-Pad8)*%
X148209000Y-86020000D03*
%TD*%
D12*
%TO.P,SW9,1,1*%
%TO.N,SW_3*%
X148590000Y-135890000D03*
%TO.P,SW9,2,2*%
%TO.N,Net-(D11-Pad2)*%
X154940000Y-133350000D03*
%TD*%
D14*
%TO.P,SW3,A,A*%
%TO.N,/Rotary_A*%
X121550000Y-103465000D03*
D13*
%TO.P,SW3,B,B*%
%TO.N,/Rotary_B*%
X121550000Y-98465000D03*
%TO.P,SW3,C,C*%
%TO.N,GND*%
X121550000Y-100965000D03*
D15*
%TO.P,SW3,MP*%
%TO.N,N/C*%
X114050000Y-106565000D03*
X114050000Y-95365000D03*
D13*
%TO.P,SW3,S1,S1*%
%TO.N,/Rotary_Z*%
X107050000Y-98465000D03*
%TO.P,SW3,S2,S2*%
%TO.N,GND*%
X107050000Y-103465000D03*
%TD*%
D12*
%TO.P,SW6,1,1*%
%TO.N,SW_2*%
X129540000Y-116840000D03*
%TO.P,SW6,2,2*%
%TO.N,Net-(D8-Pad2)*%
X135890000Y-114300000D03*
%TD*%
%TO.P,SW7,1,1*%
%TO.N,SW_2*%
X129540000Y-135890000D03*
%TO.P,SW7,2,2*%
%TO.N,Net-(D9-Pad2)*%
X135890000Y-133350000D03*
%TD*%
D16*
%TO.P,J1,S1,SHIELD*%
%TO.N,GND*%
X174670000Y-120775000D03*
X174670000Y-129415000D03*
D17*
X178850000Y-120775000D03*
X178850000Y-129415000D03*
%TD*%
D12*
%TO.P,SW5,1,1*%
%TO.N,SW_1*%
X110490000Y-135890000D03*
%TO.P,SW5,2,2*%
%TO.N,Net-(D7-Pad2)*%
X116840000Y-133350000D03*
%TD*%
%TO.P,SW8,1,1*%
%TO.N,SW_3*%
X148590000Y-116840000D03*
%TO.P,SW8,2,2*%
%TO.N,Net-(D10-Pad2)*%
X154940000Y-114300000D03*
%TD*%
D18*
%TO.N,R_Z*%
X149987000Y-89535000D03*
%TO.N,Net-(C3-Pad2)*%
X161925000Y-89953500D03*
X156860705Y-89953500D03*
X166243000Y-89408000D03*
%TO.N,GND*%
X162306000Y-110744000D03*
X169926000Y-93472000D03*
X168783000Y-118872000D03*
X167386000Y-127254000D03*
X123444000Y-85852000D03*
X154432000Y-88392000D03*
X160274000Y-106934000D03*
X104394000Y-119126000D03*
X166116000Y-96012000D03*
X174879000Y-119507000D03*
X178689000Y-119507000D03*
X100584000Y-95758000D03*
X154559000Y-85217000D03*
X162306000Y-106680000D03*
X102870000Y-139700000D03*
X168910000Y-90932000D03*
X106172000Y-88138000D03*
X94742000Y-112522000D03*
X106172000Y-85852000D03*
X168656000Y-121920000D03*
X104394000Y-131826000D03*
X167132000Y-110744000D03*
X94742000Y-118618000D03*
X172720000Y-129286000D03*
X168910000Y-96012000D03*
X154432000Y-95250000D03*
X161798000Y-85344000D03*
X167386000Y-117856000D03*
X167386000Y-96012000D03*
X173101000Y-115062000D03*
X167386000Y-90932000D03*
X94742000Y-131318000D03*
X173482000Y-106680000D03*
X94742000Y-125222000D03*
X104394000Y-125476000D03*
X176022000Y-85598000D03*
X153670000Y-101600000D03*
X154559605Y-90207396D03*
X115570000Y-85344000D03*
X108850048Y-89515884D03*
X167132000Y-106680000D03*
X117602000Y-89417502D03*
X123444000Y-88138000D03*
X166116000Y-90932000D03*
%TO.N,VCC*%
X174879000Y-108585000D03*
X154178000Y-97536000D03*
X102870000Y-100076000D03*
X176911000Y-108585000D03*
X103864500Y-89254522D03*
X119126000Y-85852000D03*
X112972484Y-89359121D03*
X107442000Y-86614000D03*
X173863000Y-108585000D03*
X116078000Y-86614000D03*
X101600000Y-85852000D03*
X175260000Y-115062000D03*
X120917803Y-89431473D03*
X175895000Y-108585000D03*
X110744000Y-85852000D03*
X170180000Y-117856000D03*
X161798000Y-87630000D03*
%TO.N,Net-(C3-Pad2)*%
X166624000Y-105156000D03*
%TO.N,/+5V*%
X115316000Y-123698000D03*
X108966000Y-123698000D03*
%TO.N,SW_A*%
X171450000Y-104902000D03*
X163576000Y-127762000D03*
%TO.N,SW_B*%
X175768000Y-102108000D03*
X178054000Y-108204000D03*
%TO.N,/IO5*%
X143002000Y-109474000D03*
X153289000Y-91059000D03*
X162560000Y-91186000D03*
%TO.N,/IO4*%
X173736000Y-89916000D03*
X177800000Y-105664000D03*
X179832000Y-108458000D03*
%TO.N,/IO3*%
X178054000Y-112776000D03*
X161798000Y-104902000D03*
X180086000Y-112776000D03*
X174752000Y-112776000D03*
%TO.N,/BOOT*%
X175260000Y-100330000D03*
X151384000Y-86614000D03*
%TO.N,/IO6*%
X161798000Y-91948000D03*
%TO.N,/IO7*%
X163538500Y-93810500D03*
%TO.N,/DIS_SDA*%
X167005000Y-100621500D03*
%TO.N,/DIS_CLK*%
X168275000Y-100621500D03*
X151765000Y-92710000D03*
%TO.N,SW_1*%
X162306000Y-101600000D03*
X132588000Y-101346000D03*
%TO.N,SW_2*%
X135382000Y-100584000D03*
X129540000Y-119634000D03*
X162306000Y-99822000D03*
%TO.N,SW_3*%
X164084000Y-100621500D03*
X156972000Y-99060000D03*
X148590000Y-119634000D03*
%TO.N,R_A*%
X109982000Y-88138000D03*
X169418000Y-101727000D03*
%TO.N,R_B*%
X118364000Y-87122000D03*
X162814000Y-97028000D03*
X171666500Y-96393000D03*
X171666500Y-101473000D03*
%TO.N,R_Z*%
X164860500Y-94596262D03*
%TD*%
D19*
%TO.N,/DIS_CLK*%
X168275000Y-99949000D02*
X168275000Y-100621500D01*
X161073500Y-92747500D02*
X168275000Y-99949000D01*
X151765000Y-92710000D02*
X151802500Y-92747500D01*
X151802500Y-92747500D02*
X161073500Y-92747500D01*
%TO.N,R_Z*%
X152019000Y-87503000D02*
X149987000Y-89535000D01*
X156845000Y-87503000D02*
X152019000Y-87503000D01*
X157821511Y-88479511D02*
X156845000Y-87503000D01*
X162647511Y-88479511D02*
X157821511Y-88479511D01*
X164338000Y-90668097D02*
X164338000Y-90170000D01*
X164275091Y-90731006D02*
X164338000Y-90668097D01*
X164338000Y-91456253D02*
X164275091Y-91393344D01*
X164275091Y-91393344D02*
X164275091Y-90731006D01*
X164338000Y-94073762D02*
X164338000Y-91456253D01*
X164338000Y-90170000D02*
X162647511Y-88479511D01*
X164860500Y-94596262D02*
X164338000Y-94073762D01*
%TO.N,/IO7*%
X145669000Y-86487000D02*
X145669000Y-86020000D01*
X149606000Y-90424000D02*
X145669000Y-86487000D01*
X152781000Y-90424000D02*
X149606000Y-90424000D01*
X154051000Y-89154000D02*
X152781000Y-90424000D01*
X162544862Y-89154000D02*
X154051000Y-89154000D01*
X163725571Y-91620962D02*
X163725571Y-90503388D01*
X163788480Y-90397618D02*
X162544862Y-89154000D01*
X163788480Y-91683871D02*
X163725571Y-91620962D01*
X163725571Y-90503388D02*
X163788480Y-90440478D01*
X163788480Y-93560520D02*
X163788480Y-91683871D01*
X163538500Y-93810500D02*
X163788480Y-93560520D01*
X163788480Y-90440478D02*
X163788480Y-90397618D01*
%TO.N,/IO5*%
X153416000Y-91186000D02*
X162560000Y-91186000D01*
X153289000Y-91059000D02*
X153416000Y-91186000D01*
%TO.N,Net-(C3-Pad2)*%
X161925000Y-89953500D02*
X156860705Y-89953500D01*
X172339000Y-90678000D02*
X171069000Y-89408000D01*
X170434000Y-94869000D02*
X172339000Y-92964000D01*
X171069000Y-89408000D02*
X166243000Y-89408000D01*
X170434000Y-101841680D02*
X170434000Y-94869000D01*
X172339000Y-92964000D02*
X172339000Y-90678000D01*
X167119680Y-105156000D02*
X170434000Y-101841680D01*
X166624000Y-105156000D02*
X167119680Y-105156000D01*
%TO.N,R_A*%
X121666000Y-88138000D02*
X109982000Y-88138000D01*
X125984000Y-92456000D02*
X121666000Y-88138000D01*
X141732000Y-92456000D02*
X125984000Y-92456000D01*
X145796000Y-96520000D02*
X141732000Y-92456000D01*
X161036000Y-96520000D02*
X145796000Y-96520000D01*
X164211000Y-98933000D02*
X163449000Y-98933000D01*
X166205489Y-100927489D02*
X164211000Y-98933000D01*
X163449000Y-98933000D02*
X161036000Y-96520000D01*
X166840238Y-101587418D02*
X166205489Y-100952669D01*
X169278418Y-101587418D02*
X166840238Y-101587418D01*
X166205489Y-100952669D02*
X166205489Y-100927489D01*
X169418000Y-101727000D02*
X169278418Y-101587418D01*
%TO.N,/DIS_SDA*%
X145578229Y-93549229D02*
X138049000Y-86020000D01*
X160859229Y-93549229D02*
X145578229Y-93549229D01*
X167005000Y-99695000D02*
X160859229Y-93549229D01*
X167005000Y-100621500D02*
X167005000Y-99695000D01*
%TO.N,R_B*%
X171831000Y-96557500D02*
X171666500Y-96393000D01*
X171831000Y-101308500D02*
X171831000Y-96557500D01*
X171666500Y-101473000D02*
X171831000Y-101308500D01*
D20*
%TO.N,/+5V*%
X108966000Y-123698000D02*
X115316000Y-123698000D01*
D19*
%TO.N,SW_A*%
X171450000Y-107556680D02*
X171450000Y-104902000D01*
X176530000Y-131064000D02*
X176530000Y-112636680D01*
X165354000Y-131064000D02*
X176530000Y-131064000D01*
X163576000Y-127762000D02*
X163576000Y-129286000D01*
X163576000Y-129286000D02*
X165354000Y-131064000D01*
X176530000Y-112636680D02*
X171450000Y-107556680D01*
%TO.N,SW_B*%
X178054000Y-108204000D02*
X179070000Y-107188000D01*
X179070000Y-107188000D02*
X179070000Y-103124000D01*
X177292000Y-101346000D02*
X176530000Y-101346000D01*
X179070000Y-103124000D02*
X177292000Y-101346000D01*
X176530000Y-101346000D02*
X175768000Y-102108000D01*
%TO.N,/IO5*%
X143002000Y-109474000D02*
X145288000Y-111760000D01*
X166375000Y-139197000D02*
X166375000Y-145415000D01*
X145288000Y-111760000D02*
X148844000Y-111760000D01*
X148844000Y-111760000D02*
X156210000Y-119126000D01*
X156210000Y-129032000D02*
X166375000Y-139197000D01*
X156210000Y-119126000D02*
X156210000Y-129032000D01*
%TO.N,/IO4*%
X173736000Y-89916000D02*
X173736000Y-101600000D01*
X179832000Y-108458000D02*
X178054000Y-110236000D01*
X168656000Y-141224000D02*
X168656000Y-145156000D01*
X177800000Y-110236000D02*
X177292000Y-110744000D01*
X178054000Y-110236000D02*
X177800000Y-110236000D01*
X173736000Y-101600000D02*
X177800000Y-105664000D01*
X177292000Y-110744000D02*
X177292000Y-132588000D01*
X168656000Y-145156000D02*
X168915000Y-145415000D01*
X177292000Y-132588000D02*
X168656000Y-141224000D01*
%TO.N,/IO3*%
X161798000Y-104902000D02*
X164592000Y-107696000D01*
X169672000Y-107696000D02*
X174752000Y-112776000D01*
X164592000Y-107696000D02*
X169672000Y-107696000D01*
X178054000Y-112776000D02*
X180086000Y-112776000D01*
%TO.N,/BOOT*%
X175260000Y-100330000D02*
X175260000Y-87630000D01*
X174244000Y-86614000D02*
X151384000Y-86614000D01*
X175260000Y-87630000D02*
X174244000Y-86614000D01*
%TO.N,/IO6*%
X149057000Y-91948000D02*
X143129000Y-86020000D01*
X161798000Y-91948000D02*
X149057000Y-91948000D01*
%TO.N,SW_1*%
X136471160Y-100625520D02*
X135713169Y-101383511D01*
X161331520Y-100625520D02*
X136471160Y-100625520D01*
X162306000Y-101600000D02*
X161331520Y-100625520D01*
X132625511Y-101383511D02*
X132588000Y-101346000D01*
X135713169Y-101383511D02*
X132625511Y-101383511D01*
%TO.N,SW_2*%
X135382000Y-100584000D02*
X135890000Y-100076000D01*
X156424342Y-100076000D02*
X156640831Y-99859511D01*
X129540000Y-119634000D02*
X129540000Y-135890000D01*
X162268489Y-99859511D02*
X162306000Y-99822000D01*
X129540000Y-132588000D02*
X129540000Y-116840000D01*
X135890000Y-100076000D02*
X156424342Y-100076000D01*
X156640831Y-99859511D02*
X162268489Y-99859511D01*
%TO.N,SW_3*%
X156972000Y-99060000D02*
X157009511Y-99022489D01*
X148590000Y-119634000D02*
X148590000Y-135890000D01*
X164084000Y-100469320D02*
X164084000Y-100621500D01*
X157009511Y-99022489D02*
X162637169Y-99022489D01*
X162637169Y-99022489D02*
X164084000Y-100469320D01*
%TO.N,R_B*%
X162814000Y-97028000D02*
X162814000Y-96774000D01*
X160490489Y-94450489D02*
X145250489Y-94450489D01*
X130810000Y-91186000D02*
X126746000Y-87122000D01*
X126746000Y-87122000D02*
X118364000Y-87122000D01*
X145250489Y-94450489D02*
X141986000Y-91186000D01*
X162814000Y-96774000D02*
X160490489Y-94450489D01*
X141986000Y-91186000D02*
X130810000Y-91186000D01*
%TD*%
M02*
